<svg width="16" height="16" viewBox="0 0 16 16" fill="none" xmlns="http://www.w3.org/2000/svg">
<rect width="15.1652" height="16" transform="translate(0.269531)" fill="#171717"/>
<path fill-rule="evenodd" clip-rule="evenodd" d="M2.63902 13.5H6.66728V15H2.16511C1.64165 15 1.21729 14.5523 1.21729 14V2C1.21729 1.44771 1.64165 1 2.16511 1H6.66728V2.5H2.63902V13.5ZM12.0598 7.24999L10.1929 5.28031L9.69022 4.74998L10.6955 3.68932L11.1982 4.21965L14.1111 7.29288C14.4813 7.6834 14.4813 8.31657 14.1111 8.70709L11.1982 11.7803L10.6955 12.3106L9.69022 11.25L10.1929 10.7197L12.0598 8.74999H5.71946H5.00859V7.24999H5.71946H12.0598Z" fill="white"/>
</svg>
