<svg width="16" height="16" viewBox="0 0 16 16" fill="none" xmlns="http://www.w3.org/2000/svg">
<path fill-rule="evenodd" clip-rule="evenodd" d="M7.74976 0C5.95483 0 4.49976 1.45507 4.49976 3.25V3.75C4.49976 5.54493 5.95483 7 7.74976 7H8.24976C10.0447 7 11.4998 5.54493 11.4998 3.75V3.25C11.4998 1.45507 10.0447 0 8.24976 0H7.74976ZM5.99976 3.25C5.99976 2.2835 6.78326 1.5 7.74976 1.5H8.24976C9.21626 1.5 9.99976 2.2835 9.99976 3.25V3.75C9.99976 4.7165 9.21626 5.5 8.24976 5.5H7.74976C6.78326 5.5 5.99976 4.7165 5.99976 3.75V3.25ZM2.49976 14.5V13.1709C3.31934 11.5377 4.99284 10.5 6.82921 10.5H9.17031C11.0067 10.5 12.6802 11.5377 13.4998 13.1709V14.5H2.49976ZM6.82921 9C4.35459 9 2.1058 10.4388 1.06879 12.6857L0.999756 12.8353V13V15.25V16H1.74976H14.2498H14.9998V15.25V13V12.8353L14.9308 12.6857C13.8938 10.4388 11.645 9 9.17031 9H6.82921Z" fill="black"/>
</svg>
